<?xml version="1.0" encoding="UTF-8" standalone="no"?>
<svg
   xmlns:dc="http://purl.org/dc/elements/1.1/"
   xmlns:cc="http://creativecommons.org/ns#"
   xmlns:rdf="http://www.w3.org/1999/02/22-rdf-syntax-ns#"
   xmlns:svg="http://www.w3.org/2000/svg"
   xmlns="http://www.w3.org/2000/svg"
   xmlns:sodipodi="http://sodipodi.sourceforge.net/DTD/sodipodi-0.dtd"
   xmlns:inkscape="http://www.inkscape.org/namespaces/inkscape"
   inkscape:export-ydpi="123.64856"
   inkscape:export-xdpi="123.64856"
   inkscape:export-filename="/home/jrwrigh/gitRepos/jameswright.xyz_source/content/post/cross_product_in_index_notation/Permutation_indices_3d_numerical_edit.png"
   inkscape:version="1.0 (4035a4fb49, 2020-05-01)"
   sodipodi:docname="Permutation_indices_3d_numerical_edit.svg"
   id="svg140"
   height="207.588"
   width="388.197"
   version="1.1">
  <metadata
     id="metadata146">
    <rdf:RDF>
      <cc:Work
         rdf:about="">
        <dc:format>image/svg+xml</dc:format>
        <dc:type
           rdf:resource="http://purl.org/dc/dcmitype/StillImage" />
        <dc:title></dc:title>
      </cc:Work>
    </rdf:RDF>
  </metadata>
  <defs
     id="defs144" />
  <sodipodi:namedview
     inkscape:current-layer="svg140"
     inkscape:window-maximized="1"
     inkscape:window-y="23"
     inkscape:window-x="0"
     inkscape:cy="84.667396"
     inkscape:cx="257.78377"
     inkscape:zoom="2.0714107"
     showgrid="false"
     id="namedview142"
     inkscape:window-height="1057"
     inkscape:window-width="1920"
     inkscape:pageshadow="2"
     inkscape:pageopacity="0"
     guidetolerance="10"
     gridtolerance="10"
     objecttolerance="10"
     borderopacity="1"
     bordercolor="#666666"
     pagecolor="#ffffff" />
  <text
     style="fill:#d8d8d3;fill-opacity:1;"
     id="dp_text001"
     xml:space="preserve"
     fill="#1e02ab"
     stroke="none"
     stroke-width="2.66667"
     font-family="Arial"
     font-size="41px"
     font-weight="400"
     x="331.01001"
     y="197.638">1  </text>
  <text
     style="fill:#d8d8d3;fill-opacity:1;"
     id="dp_text002"
     xml:space="preserve"
     fill="#1e02ab"
     stroke="none"
     stroke-width="2.66667"
     font-family="Arial"
     font-size="41px"
     font-weight="400"
     x="208.00101"
     y="120.629">3  </text>
  <text
     style="fill:#d8d8d3;fill-opacity:1;"
     id="dp_text003"
     xml:space="preserve"
     fill="#1e02ab"
     stroke="none"
     stroke-width="2.66667"
     font-family="Arial"
     font-size="41px"
     font-weight="400"
     x="324.26801"
     y="42.601002">2  </text>
  <path
     id="dp_path048"
     fill="#e30808"
     fill-rule="evenodd"
     stroke="none"
     stroke-width="2.66667"
     d="m 277.181,107.486 h 31.243 v 3.738 h -31.243 z" />
  <g
     transform="translate(-79.872,-444.937)"
     id="dp_group005">
    <g
       id="dp_group006">
      <path
         id="dp_path007"
         fill="#e30808"
         fill-rule="evenodd"
         d="m 450.372,605.757 -2.449,-2.261 -4.898,-4.524 -5.185,17.899 17.429,-6.591 z" />
      <path
         id="dp_path008"
         fill="#e30808"
         d="m 435.191,489.844 0.428,0.363 0.42,0.361 0.416,0.364 0.417,0.369 0.412,0.368 0.409,0.372 0.406,0.375 0.406,0.379 0.402,0.38 0.4,0.384 0.398,0.386 0.395,0.388 0.392,0.391 0.389,0.393 0.387,0.396 0.384,0.398 0.38,0.401 0.38,0.405 0.377,0.407 0.375,0.408 0.371,0.412 0.368,0.412 0.364,0.417 0.364,0.419 0.36,0.421 0.358,0.424 0.354,0.424 0.352,0.431 0.349,0.431 0.345,0.43 0.343,0.438 0.343,0.437 0.336,0.44 0.334,0.441 0.331,0.446 0.331,0.448 0.326,0.449 0.322,0.451 0.321,0.454 0.316,0.455 0.315,0.459 0.312,0.46 0.308,0.462 0.304,0.464 0.302,0.467 0.299,0.469 0.297,0.472 0.292,0.472 0.29,0.476 0.288,0.478 0.282,0.477 0.282,0.485 0.278,0.483 0.274,0.484 0.27,0.488 0.268,0.489 0.264,0.492 0.262,0.495 0.258,0.495 0.255,0.497 0.253,0.5 0.248,0.501 0.246,0.502 0.241,0.504 0.237,0.508 0.236,0.51 0.234,0.511 0.228,0.512 0.225,0.513 0.223,0.516 0.217,0.516 0.215,0.522 0.212,0.524 0.209,0.521 0.203,0.524 0.202,0.529 0.198,0.527 0.194,0.529 0.192,0.534 0.186,0.53 0.184,0.535 0.18,0.539 0.178,0.538 0.172,0.539 0.17,0.541 0.166,0.544 0.162,0.543 0.158,0.547 0.156,0.548 0.151,0.55 0.148,0.55 0.144,0.552 0.14,0.554 0.137,0.556 0.134,0.556 0.128,0.556 0.125,0.562 0.123,0.561 0.117,0.561 0.113,0.563 0.111,0.567 0.107,0.566 0.102,0.567 0.099,0.571 0.095,0.569 0.092,0.573 0.086,0.572 0.083,0.574 0.08,0.578 0.075,0.575 0.07,0.577 0.068,0.58 0.063,0.582 0.061,0.581 0.055,0.584 0.052,0.583 0.047,0.584 0.044,0.588 0.038,0.588 0.035,0.588 0.032,0.592 0.028,0.589 0.021,0.589 0.019,0.596 0.016,0.595 0.011,0.592 0.005,0.597 10e-4,0.599 -10e-4,0.581 -0.005,0.58 -0.011,0.578 -0.013,0.576 -0.019,0.577 -0.02,0.575 -0.027,0.574 -0.029,0.572 -0.033,0.574 -0.038,0.572 -0.04,0.568 -0.045,0.568 -0.049,0.569 -0.052,0.567 -0.056,0.564 -0.06,0.566 -0.063,0.563 -0.068,0.563 -0.071,0.561 -0.076,0.559 -0.078,0.558 -0.083,0.56 -0.084,0.555 -0.091,0.555 -0.093,0.554 -0.096,0.551 -0.1,0.552 -0.105,0.549 -0.108,0.55 -0.112,0.546 -0.115,0.548 -0.117,0.544 -0.123,0.543 -0.125,0.543 -0.13,0.54 -0.133,0.541 -0.135,0.537 -0.14,0.535 -0.144,0.536 -0.146,0.533 -0.151,0.532 -0.152,0.532 -0.157,0.528 -0.16,0.528 -0.164,0.528 -0.167,0.526 -0.171,0.522 -0.173,0.52 -0.177,0.52 -0.182,0.52 -0.184,0.518 -0.186,0.516 -0.191,0.513 -0.193,0.513 -0.198,0.511 -0.2,0.508 -0.204,0.509 -0.206,0.506 -0.21,0.502 -0.214,0.503 -0.216,0.503 -0.219,0.497 -0.224,0.499 -0.224,0.494 -0.231,0.494 -0.232,0.493 -0.233,0.489 -0.24,0.49 -0.241,0.486 -0.246,0.486 -0.246,0.484 -0.251,0.48 -0.255,0.481 -0.256,0.476 -0.26,0.476 -0.261,0.473 -0.268,0.474 -0.268,0.47 -0.272,0.468 -0.273,0.466 -0.279,0.464 -0.28,0.462 -0.284,0.462 -0.285,0.456 -0.291,0.457 -0.292,0.455 -0.295,0.452 -0.298,0.452 -0.3,0.448 -0.304,0.446 -0.306,0.443 -0.309,0.441 -0.312,0.44 -0.315,0.439 -0.317,0.436 -0.32,0.432 -0.276,0.369 -0.16,0.171 2.453,2.259 0.272,-0.299 0.383,-0.511 0.333,-0.45 0.331,-0.455 0.328,-0.455 0.323,-0.456 0.322,-0.46 0.319,-0.464 0.315,-0.462 0.313,-0.467 0.309,-0.468 0.308,-0.471 0.303,-0.473 0.301,-0.473 0.299,-0.478 0.295,-0.48 0.29,-0.478 0.29,-0.483 0.286,-0.487 0.283,-0.486 0.279,-0.49 0.276,-0.489 0.274,-0.495 0.271,-0.494 0.267,-0.498 0.262,-0.497 0.262,-0.501 0.257,-0.503 0.256,-0.504 0.249,-0.508 0.248,-0.505 0.247,-0.514 0.24,-0.509 0.239,-0.515 0.234,-0.516 0.232,-0.517 0.23,-0.521 0.224,-0.519 0.222,-0.524 0.218,-0.524 0.214,-0.527 0.212,-0.528 0.208,-0.529 0.206,-0.532 0.201,-0.532 0.199,-0.535 0.194,-0.537 0.192,-0.539 0.187,-0.538 0.185,-0.542 0.182,-0.544 0.176,-0.544 0.174,-0.546 0.17,-0.547 0.168,-0.549 0.162,-0.552 0.16,-0.551 0.156,-0.553 0.152,-0.555 0.15,-0.557 0.145,-0.559 0.143,-0.561 0.136,-0.56 0.134,-0.562 0.131,-0.564 0.128,-0.566 0.123,-0.568 0.12,-0.567 0.114,-0.568 0.114,-0.571 0.108,-0.573 0.105,-0.573 0.101,-0.575 0.096,-0.576 0.094,-0.579 0.089,-0.578 0.085,-0.579 0.082,-0.58 0.078,-0.583 0.074,-0.585 0.07,-0.584 0.066,-0.587 0.062,-0.585 0.059,-0.588 0.055,-0.591 0.049,-0.588 0.048,-0.592 0.043,-0.594 0.037,-0.594 0.036,-0.594 0.029,-0.596 0.027,-0.596 0.023,-0.599 0.018,-0.599 0.014,-0.6 0.01,-0.601 0.006,-0.601 0.004,-0.603 -0.004,-0.62 -0.006,-0.619 -0.01,-0.621 -0.016,-0.616 -0.019,-0.615 -0.024,-0.616 -0.028,-0.616 -0.032,-0.613 -0.037,-0.612 -0.042,-0.609 -0.044,-0.61 -0.049,-0.61 -0.055,-0.607 -0.057,-0.605 -0.061,-0.606 -0.066,-0.602 -0.07,-0.604 -0.074,-0.602 -0.08,-0.601 -0.082,-0.597 -0.086,-0.598 -0.092,-0.598 -0.094,-0.592 -0.098,-0.594 -0.104,-0.592 -0.105,-0.59 -0.112,-0.591 -0.113,-0.585 -0.119,-0.587 -0.123,-0.588 -0.128,-0.583 -0.128,-0.58 -0.136,-0.582 -0.138,-0.58 -0.143,-0.578 -0.145,-0.573 -0.15,-0.576 -0.153,-0.573 -0.159,-0.572 -0.161,-0.57 -0.164,-0.568 -0.169,-0.566 -0.172,-0.566 -0.178,-0.562 -0.18,-0.563 -0.184,-0.56 -0.188,-0.557 -0.189,-0.556 -0.196,-0.558 -0.2,-0.552 -0.2,-0.55 -0.208,-0.551 -0.208,-0.545 -0.213,-0.548 -0.218,-0.546 -0.22,-0.54 -0.222,-0.54 -0.228,-0.54 -0.231,-0.537 -0.233,-0.535 -0.239,-0.533 -0.241,-0.532 -0.244,-0.527 -0.248,-0.526 -0.252,-0.528 -0.256,-0.526 -0.259,-0.52 -0.261,-0.518 -0.266,-0.519 -0.269,-0.516 -0.272,-0.511 -0.275,-0.51 -0.278,-0.511 -0.282,-0.507 -0.286,-0.508 -0.29,-0.501 -0.289,-0.499 -0.296,-0.501 -0.299,-0.496 -0.3,-0.492 -0.305,-0.493 -0.308,-0.491 -0.312,-0.488 -0.313,-0.485 -0.318,-0.483 -0.321,-0.481 -0.323,-0.479 -0.328,-0.477 -0.329,-0.474 -0.332,-0.47 -0.337,-0.472 -0.34,-0.466 -0.339,-0.464 -0.347,-0.464 -0.348,-0.46 -0.352,-0.458 -0.353,-0.454 -0.356,-0.453 -0.361,-0.452 -0.363,-0.447 -0.365,-0.444 -0.37,-0.445 -0.372,-0.44 -0.373,-0.437 -0.377,-0.435 -0.38,-0.433 -0.384,-0.431 -0.387,-0.428 -0.388,-0.424 -0.391,-0.423 -0.393,-0.418 -0.396,-0.418 -0.4,-0.416 -0.403,-0.412 -0.405,-0.409 -0.408,-0.407 -0.411,-0.404 -0.412,-0.4 -0.416,-0.4 -0.42,-0.396 -0.42,-0.392 -0.424,-0.39 -0.428,-0.388 -0.428,-0.384 -0.43,-0.38 -0.435,-0.38 -0.436,-0.375 -0.433,-0.371 z" />
    </g>
  </g>
  <g
     transform="translate(-79.872,-444.937)"
     id="dp_group009">
    <g
       id="dp_group010">
      <path
         id="dp_path011"
         fill="#e30808"
         fill-rule="evenodd"
         d="m 306.228,595.648 3.045,-1.356 6.091,-2.712 -14.392,-11.836 -0.833,18.615 z" />
      <path
         id="dp_path012"
         fill="#e30808"
         d="m 408.139,632.207 -0.791,0.262 -0.787,0.251 -0.789,0.244 -0.793,0.237 -0.795,0.228 -0.799,0.22 -0.804,0.214 -0.805,0.205 -0.809,0.197 -0.812,0.19 -0.815,0.181 -0.817,0.173 -0.822,0.166 -0.824,0.158 -0.825,0.148 -0.831,0.142 -0.832,0.133 -0.834,0.124 -0.838,0.117 -0.841,0.108 -0.843,0.099 -0.845,0.092 -0.847,0.083 -0.852,0.074 -0.852,0.066 -0.856,0.056 -0.858,0.048 -0.86,0.041 -0.86,0.029 -0.868,0.023 -0.866,0.015 -0.869,0.002 -0.865,-0.002 -0.862,-0.014 -0.858,-0.022 -0.858,-0.031 -0.857,-0.04 -0.853,-0.047 -0.85,-0.056 -0.849,-0.065 -0.847,-0.073 -0.842,-0.082 -0.839,-0.09 -0.84,-0.099 -0.836,-0.107 -0.833,-0.114 -0.831,-0.123 -0.827,-0.132 -0.824,-0.14 -0.822,-0.148 -0.82,-0.155 -0.818,-0.164 -0.814,-0.17 -0.81,-0.18 -0.808,-0.188 -0.805,-0.195 -0.801,-0.203 -0.799,-0.21 -0.793,-0.218 -0.792,-0.226 -0.79,-0.234 -0.786,-0.242 -0.783,-0.248 -0.779,-0.256 -0.774,-0.264 -0.774,-0.271 -0.766,-0.277 -0.766,-0.287 -0.762,-0.293 -0.756,-0.3 -0.755,-0.308 -0.752,-0.315 -0.745,-0.321 -0.743,-0.33 -0.74,-0.336 -0.735,-0.342 -0.732,-0.351 -0.726,-0.355 -0.723,-0.364 -0.72,-0.37 -0.715,-0.376 -0.71,-0.384 -0.708,-0.392 -0.703,-0.398 -0.697,-0.402 -0.696,-0.412 -0.69,-0.416 -0.684,-0.423 -0.681,-0.429 -0.677,-0.438 -0.672,-0.441 -0.666,-0.449 -0.664,-0.456 -0.66,-0.462 -0.653,-0.466 -0.648,-0.474 -0.644,-0.478 -0.639,-0.487 -0.634,-0.492 -0.631,-0.499 -0.624,-0.502 -0.62,-0.51 -0.613,-0.514 -0.611,-0.523 -0.604,-0.527 -0.6,-0.533 -0.595,-0.537 -0.586,-0.543 -0.584,-0.552 -0.58,-0.555 -0.572,-0.558 -0.568,-0.567 -0.562,-0.572 -0.556,-0.577 -0.552,-0.583 -0.546,-0.587 -0.539,-0.592 -0.535,-0.598 -0.529,-0.604 -0.523,-0.607 -0.516,-0.612 -0.51,-0.62 -0.507,-0.623 -0.499,-0.628 -0.493,-0.633 -0.487,-0.637 -0.481,-0.644 -0.477,-0.648 -0.468,-0.651 -0.463,-0.657 -0.457,-0.663 -0.451,-0.665 -0.444,-0.672 -0.439,-0.675 -0.43,-0.679 -0.424,-0.684 -0.419,-0.69 -0.413,-0.694 -0.364,-0.624 -0.252,-0.569 -3.046,1.355 0.327,0.732 0.463,0.797 0.429,0.72 0.435,0.715 0.442,0.713 0.45,0.708 0.454,0.701 0.463,0.699 0.469,0.692 0.474,0.687 0.481,0.684 0.489,0.68 0.494,0.672 0.5,0.668 0.508,0.664 0.512,0.657 0.52,0.655 0.525,0.649 0.532,0.641 0.537,0.639 0.544,0.633 0.551,0.626 0.553,0.62 0.563,0.618 0.568,0.611 0.571,0.604 0.58,0.601 0.585,0.594 0.589,0.588 0.596,0.585 0.602,0.576 0.605,0.571 0.613,0.566 0.619,0.559 0.621,0.555 0.631,0.548 0.632,0.541 0.64,0.536 0.644,0.531 0.651,0.524 0.654,0.517 0.659,0.511 0.665,0.505 0.671,0.5 0.675,0.492 0.68,0.485 0.684,0.48 0.688,0.472 0.694,0.468 0.699,0.46 0.704,0.454 0.708,0.448 0.713,0.441 0.719,0.432 0.72,0.425 0.727,0.422 0.732,0.413 0.734,0.405 0.74,0.4 0.744,0.392 0.747,0.384 0.755,0.38 0.756,0.371 0.761,0.364 0.764,0.356 0.769,0.349 0.772,0.343 0.778,0.335 0.781,0.328 0.784,0.318 0.788,0.314 0.792,0.304 0.795,0.297 0.801,0.291 0.803,0.281 0.806,0.275 0.811,0.266 0.815,0.259 0.816,0.251 0.821,0.244 0.824,0.234 0.828,0.228 0.831,0.219 0.833,0.211 0.837,0.202 0.84,0.196 0.844,0.186 0.847,0.178 0.849,0.17 0.852,0.162 0.855,0.154 0.859,0.145 0.861,0.137 0.865,0.128 0.866,0.12 0.868,0.11 0.872,0.104 0.876,0.093 0.877,0.084 0.879,0.076 0.881,0.068 0.887,0.059 0.885,0.049 0.889,0.04 0.89,0.033 0.896,0.023 0.896,0.013 0.897,0.006 0.904,-0.006 0.9,-0.014 0.897,-0.023 0.898,-0.032 0.894,-0.041 0.891,-0.051 0.888,-0.059 0.889,-0.068 0.884,-0.077 0.882,-0.085 0.88,-0.095 0.877,-0.104 0.873,-0.113 0.872,-0.12 0.867,-0.13 0.867,-0.138 0.862,-0.147 0.86,-0.156 0.856,-0.164 0.854,-0.171 0.852,-0.181 0.849,-0.189 0.844,-0.198 0.841,-0.205 0.838,-0.213 0.833,-0.222 0.833,-0.228 0.83,-0.238 0.825,-0.246 0.821,-0.254 0.816,-0.262 0.807,-0.265 z" />
    </g>
  </g>
  <g
     transform="translate(-79.872,-444.937)"
     id="dp_group013">
    <g
       id="dp_group014">
      <path
         id="dp_path015"
         fill="#e30808"
         fill-rule="evenodd"
         d="m 383.105,466.969 -0.373,3.312 -0.745,6.626 17.494,-6.418 -15.63,-10.145 z" />
      <path
         id="dp_path016"
         fill="#e30808"
         d="m 301.021,532.868 0.22,-0.851 0.227,-0.837 0.236,-0.835 0.244,-0.83 0.252,-0.827 0.261,-0.824 0.27,-0.821 0.277,-0.816 0.285,-0.812 0.294,-0.807 0.302,-0.805 0.31,-0.8 0.317,-0.799 0.325,-0.791 0.335,-0.788 0.341,-0.785 0.35,-0.78 0.356,-0.775 0.365,-0.77 0.372,-0.767 0.38,-0.761 0.389,-0.76 0.395,-0.755 0.401,-0.748 0.411,-0.745 0.417,-0.74 0.426,-0.735 0.43,-0.731 0.439,-0.724 0.448,-0.721 0.453,-0.716 0.46,-0.709 0.468,-0.707 0.475,-0.7 0.481,-0.696 0.49,-0.692 0.493,-0.685 0.501,-0.679 0.51,-0.675 0.514,-0.669 0.523,-0.664 0.529,-0.659 0.535,-0.653 0.54,-0.648 0.549,-0.641 0.554,-0.636 0.561,-0.631 0.567,-0.625 0.572,-0.619 0.58,-0.613 0.584,-0.607 0.593,-0.6 0.599,-0.597 0.601,-0.59 0.611,-0.582 0.614,-0.578 0.62,-0.569 0.628,-0.564 0.634,-0.56 0.638,-0.552 0.643,-0.544 0.651,-0.54 0.654,-0.533 0.66,-0.526 0.667,-0.518 0.671,-0.514 0.677,-0.506 0.681,-0.499 0.687,-0.492 0.693,-0.487 0.698,-0.48 0.702,-0.47 0.708,-0.464 0.712,-0.46 0.718,-0.45 0.722,-0.444 0.727,-0.436 0.732,-0.429 0.737,-0.423 0.742,-0.413 0.746,-0.408 0.75,-0.4 0.756,-0.392 0.76,-0.384 0.764,-0.379 0.768,-0.369 0.774,-0.363 0.776,-0.353 0.782,-0.347 0.785,-0.338 0.789,-0.331 0.795,-0.323 0.799,-0.314 0.801,-0.307 0.807,-0.299 0.809,-0.292 0.813,-0.282 0.818,-0.274 0.821,-0.265 0.825,-0.257 0.828,-0.251 0.834,-0.24 0.836,-0.233 0.837,-0.224 0.844,-0.215 0.845,-0.208 0.848,-0.197 0.855,-0.19 0.856,-0.18 0.86,-0.173 0.861,-0.163 0.864,-0.153 0.872,-0.145 0.871,-0.138 0.873,-0.125 0.879,-0.119 0.88,-0.108 0.885,-0.1 0.886,-0.09 0.888,-0.082 0.892,-0.07 0.896,-0.063 0.896,-0.053 0.898,-0.044 0.902,-0.034 0.904,-0.024 0.908,-0.014 0.912,-0.004 h 0.561 l 0.484,0.006 0.089,0.011 0.363,-3.315 -0.252,-0.026 -0.663,-0.007 -0.588,-0.003 -0.941,0.007 -0.943,0.015 -0.938,0.024 -0.939,0.036 -0.936,0.044 -0.933,0.056 -0.928,0.065 -0.927,0.073 -0.925,0.084 -0.923,0.096 -0.917,0.103 -0.915,0.113 -0.913,0.122 -0.911,0.133 -0.908,0.143 -0.901,0.15 -0.902,0.159 -0.898,0.171 -0.892,0.178 -0.891,0.188 -0.887,0.198 -0.885,0.205 -0.88,0.216 -0.876,0.223 -0.875,0.234 -0.868,0.242 -0.865,0.25 -0.863,0.259 -0.857,0.268 -0.856,0.276 -0.849,0.287 -0.848,0.293 -0.842,0.303 -0.838,0.309 -0.836,0.32 -0.828,0.328 -0.827,0.336 -0.821,0.344 -0.818,0.352 -0.813,0.36 -0.808,0.369 -0.804,0.376 -0.8,0.386 -0.796,0.392 -0.789,0.4 -0.786,0.408 -0.781,0.416 -0.776,0.424 -0.771,0.432 -0.766,0.438 -0.762,0.446 -0.756,0.454 -0.752,0.46 -0.746,0.471 -0.742,0.476 -0.734,0.483 -0.732,0.492 -0.724,0.498 -0.72,0.503 -0.716,0.513 -0.708,0.52 -0.704,0.526 -0.7,0.534 -0.691,0.54 -0.687,0.547 -0.681,0.555 -0.675,0.558 -0.672,0.568 -0.662,0.576 -0.658,0.579 -0.652,0.585 -0.646,0.596 -0.639,0.599 -0.635,0.607 -0.628,0.613 -0.62,0.619 -0.614,0.624 -0.611,0.633 -0.601,0.637 -0.596,0.643 -0.591,0.649 -0.583,0.658 -0.574,0.66 -0.571,0.668 -0.564,0.674 -0.556,0.678 -0.548,0.685 -0.544,0.691 -0.536,0.696 -0.528,0.701 -0.523,0.708 -0.514,0.712 -0.508,0.719 -0.5,0.722 -0.494,0.73 -0.486,0.733 -0.479,0.739 -0.472,0.745 -0.464,0.748 -0.457,0.756 -0.45,0.76 -0.441,0.764 -0.433,0.769 -0.427,0.775 -0.42,0.78 -0.411,0.784 -0.402,0.787 -0.396,0.793 -0.388,0.799 -0.379,0.802 -0.372,0.807 -0.363,0.812 -0.354,0.815 -0.348,0.82 -0.339,0.825 -0.331,0.828 -0.322,0.832 -0.314,0.837 -0.306,0.842 -0.296,0.846 -0.288,0.848 -0.28,0.854 -0.272,0.856 -0.263,0.861 -0.255,0.863 -0.244,0.869 -0.237,0.872 -0.225,0.867 z" />
    </g>
  </g>
  <text
     style="fill:#a6e22d;fill-opacity:1;"
     id="dp_text004"
     transform="scale(1.0004249,0.99957527)"
     xml:space="preserve"
     fill="#f4b005"
     stroke="none"
     stroke-width="2.6678"
     font-family="Arial"
     font-size="58.0246px"
     font-weight="400"
     x="68.726799"
     y="128.58562">+  </text>
  <text
     style="fill:#d8d8d3;fill-opacity:1;"
     id="dp_text005"
     xml:space="preserve"
     fill="#1e02ab"
     stroke="none"
     stroke-width="2.66667"
     font-family="Arial"
     font-size="41px"
     font-weight="400"
     x="123.01"
     y="196.03799">1  </text>
  <text
     style="fill:#d8d8d3;fill-opacity:1;"
     id="dp_text006"
     xml:space="preserve"
     fill="#1e02ab"
     stroke="none"
     stroke-width="2.66667"
     font-family="Arial"
     font-size="41px"
     font-weight="400"
     x="0.001"
     y="119.029">3  </text>
  <text
     style="fill:#d8d8d3;fill-opacity:1;"
     id="dp_text007"
     xml:space="preserve"
     fill="#1e02ab"
     stroke="none"
     stroke-width="2.66667"
     font-family="Arial"
     font-size="41px"
     font-weight="400"
     x="116.268"
     y="41.000999">2  </text>
  <g
     style="fill:#a6e22d;fill-opacity:1"
     transform="translate(-79.872,-444.937)"
     id="dp_group021">
    <g
       style="fill:#a6e22d;fill-opacity:1"
       id="dp_group022">
      <path
         style="fill:#a6e22d;fill-opacity:1"
         id="dp_path023"
         fill="#f4b005"
         fill-rule="evenodd"
         d="m 238.68,497.097 2.392,-2.321 4.785,-4.643 -17.588,-6.157 5.627,17.764 z" />
      <path
         style="fill:#a6e22d;fill-opacity:1"
         id="dp_path024"
         fill="#f4b005"
         d="m 238.681,497.097 0.118,0.119 0.293,0.375 0.343,0.437 0.336,0.44 0.334,0.441 0.331,0.446 0.331,0.448 0.326,0.449 0.322,0.451 0.321,0.454 0.316,0.455 0.315,0.459 0.312,0.46 0.308,0.462 0.304,0.464 0.302,0.467 0.299,0.469 0.297,0.472 0.292,0.472 0.29,0.476 0.288,0.478 0.282,0.477 0.282,0.485 0.278,0.483 0.274,0.484 0.27,0.488 0.268,0.489 0.264,0.492 0.262,0.495 0.258,0.495 0.255,0.497 0.253,0.5 0.248,0.501 0.246,0.502 0.241,0.504 0.237,0.508 0.236,0.51 0.234,0.511 0.228,0.512 0.225,0.513 0.223,0.516 0.217,0.516 0.215,0.522 0.212,0.524 0.209,0.521 0.203,0.524 0.202,0.529 0.198,0.527 0.194,0.529 0.192,0.534 0.186,0.53 0.184,0.535 0.18,0.539 0.178,0.538 0.172,0.539 0.17,0.541 0.166,0.544 0.162,0.543 0.158,0.547 0.156,0.548 0.151,0.55 0.148,0.55 0.144,0.552 0.14,0.554 0.137,0.556 0.134,0.556 0.128,0.556 0.125,0.562 0.123,0.561 0.117,0.561 0.113,0.563 0.111,0.567 0.107,0.566 0.102,0.567 0.099,0.571 0.095,0.569 0.092,0.573 0.086,0.572 0.083,0.574 0.08,0.578 0.075,0.575 0.07,0.577 0.068,0.58 0.063,0.582 0.061,0.581 0.055,0.584 0.052,0.583 0.047,0.584 0.044,0.588 0.038,0.588 0.035,0.588 0.032,0.592 0.028,0.589 0.021,0.589 0.019,0.596 0.016,0.595 0.011,0.592 0.005,0.597 10e-4,0.599 -10e-4,0.581 -0.005,0.58 -0.011,0.578 -0.013,0.576 -0.019,0.577 -0.02,0.575 -0.027,0.574 -0.029,0.572 -0.033,0.574 -0.038,0.572 -0.04,0.568 -0.045,0.568 -0.049,0.569 -0.052,0.567 -0.056,0.564 -0.06,0.566 -0.063,0.563 -0.068,0.563 -0.071,0.561 -0.076,0.559 -0.078,0.558 -0.083,0.56 -0.084,0.555 -0.091,0.555 -0.093,0.554 -0.096,0.551 -0.1,0.552 -0.105,0.549 -0.108,0.55 -0.112,0.546 -0.115,0.548 -0.117,0.544 -0.123,0.543 -0.125,0.543 -0.13,0.54 -0.133,0.541 -0.135,0.537 -0.14,0.535 -0.144,0.536 -0.146,0.533 -0.151,0.532 -0.152,0.532 -0.157,0.528 -0.16,0.528 -0.164,0.528 -0.167,0.526 -0.171,0.522 -0.173,0.52 -0.177,0.52 -0.182,0.52 -0.184,0.518 -0.186,0.516 -0.191,0.513 -0.193,0.513 -0.198,0.511 -0.2,0.508 -0.204,0.509 -0.206,0.506 -0.21,0.502 -0.214,0.503 -0.216,0.503 -0.219,0.497 -0.224,0.499 -0.224,0.494 -0.231,0.494 -0.232,0.493 -0.233,0.489 -0.24,0.49 -0.241,0.486 -0.246,0.486 -0.246,0.484 -0.251,0.48 -0.255,0.481 -0.256,0.476 -0.26,0.476 -0.261,0.473 -0.268,0.474 -0.268,0.47 -0.272,0.468 -0.273,0.466 -0.279,0.464 -0.28,0.462 -0.284,0.462 -0.285,0.456 -0.291,0.457 -0.292,0.455 -0.295,0.452 -0.298,0.452 -0.3,0.448 -0.304,0.446 -0.306,0.443 -0.309,0.441 -0.312,0.44 -0.315,0.439 -0.317,0.436 -0.32,0.432 -0.324,0.433 -0.325,0.43 -0.327,0.424 -0.333,0.426 -0.335,0.424 -0.333,0.419 -0.342,0.419 -0.341,0.416 -0.344,0.413 -0.348,0.412 -0.349,0.409 -0.352,0.407 -0.354,0.404 -0.358,0.403 -0.36,0.401 -0.363,0.396 -0.363,0.393 -0.369,0.394 -0.371,0.392 -0.373,0.389 -0.373,0.385 -0.376,0.382 -0.383,0.381 -0.381,0.379 -0.386,0.374 -0.386,0.375 -0.39,0.369 -0.393,0.37 -0.393,0.366 -0.398,0.363 -0.398,0.361 -0.406,0.36 2.219,2.488 0.413,-0.37 0.415,-0.375 0.413,-0.379 0.41,-0.38 0.406,-0.382 0.406,-0.386 0.402,-0.388 0.402,-0.39 0.397,-0.395 0.393,-0.395 0.395,-0.4 0.389,-0.401 0.387,-0.403 0.384,-0.405 0.383,-0.407 0.381,-0.412 0.376,-0.414 0.373,-0.415 0.372,-0.419 0.37,-0.42 0.368,-0.425 0.362,-0.425 0.359,-0.426 0.36,-0.432 0.355,-0.432 0.352,-0.434 0.352,-0.438 0.345,-0.44 0.344,-0.44 0.343,-0.445 0.338,-0.448 0.335,-0.447 0.333,-0.45 0.331,-0.455 0.328,-0.455 0.323,-0.456 0.322,-0.46 0.319,-0.464 0.315,-0.462 0.313,-0.467 0.309,-0.468 0.308,-0.471 0.303,-0.473 0.301,-0.473 0.299,-0.478 0.295,-0.48 0.29,-0.478 0.29,-0.483 0.286,-0.487 0.283,-0.486 0.279,-0.49 0.276,-0.489 0.274,-0.495 0.271,-0.494 0.267,-0.498 0.262,-0.497 0.262,-0.501 0.257,-0.503 0.256,-0.504 0.249,-0.508 0.248,-0.505 0.247,-0.514 0.24,-0.509 0.239,-0.515 0.234,-0.516 0.232,-0.517 0.23,-0.521 0.224,-0.519 0.222,-0.524 0.218,-0.524 0.214,-0.527 0.212,-0.528 0.208,-0.529 0.206,-0.532 0.201,-0.532 0.199,-0.535 0.194,-0.537 0.192,-0.539 0.187,-0.538 0.185,-0.542 0.182,-0.544 0.176,-0.544 0.174,-0.546 0.17,-0.547 0.168,-0.549 0.162,-0.552 0.16,-0.551 0.156,-0.553 0.152,-0.555 0.15,-0.557 0.145,-0.559 0.143,-0.561 0.136,-0.56 0.134,-0.562 0.131,-0.564 0.128,-0.566 0.123,-0.568 0.12,-0.567 0.114,-0.568 0.114,-0.571 0.108,-0.573 0.105,-0.573 0.101,-0.575 0.096,-0.576 0.094,-0.579 0.089,-0.578 0.085,-0.579 0.082,-0.58 0.078,-0.583 0.074,-0.585 0.07,-0.584 0.066,-0.587 0.062,-0.585 0.059,-0.588 0.055,-0.591 0.049,-0.588 0.048,-0.592 0.043,-0.594 0.037,-0.594 0.036,-0.594 0.029,-0.596 0.027,-0.596 0.023,-0.599 0.018,-0.599 0.014,-0.6 0.01,-0.601 0.006,-0.601 0.004,-0.603 -0.004,-0.62 -0.006,-0.619 -0.01,-0.621 -0.016,-0.616 -0.019,-0.615 -0.024,-0.616 -0.028,-0.616 -0.032,-0.613 -0.037,-0.612 -0.042,-0.609 -0.044,-0.61 -0.049,-0.61 -0.055,-0.607 -0.057,-0.605 -0.061,-0.606 -0.066,-0.602 -0.07,-0.604 -0.074,-0.602 -0.08,-0.601 -0.082,-0.597 -0.086,-0.598 -0.092,-0.598 -0.094,-0.592 -0.098,-0.594 -0.104,-0.592 -0.105,-0.59 -0.112,-0.591 -0.113,-0.585 -0.119,-0.587 -0.123,-0.588 -0.128,-0.583 -0.128,-0.58 -0.136,-0.582 -0.138,-0.58 -0.143,-0.578 -0.145,-0.573 -0.15,-0.576 -0.153,-0.573 -0.159,-0.572 -0.161,-0.57 -0.164,-0.568 -0.169,-0.566 -0.172,-0.566 -0.178,-0.562 -0.18,-0.563 -0.184,-0.56 -0.188,-0.557 -0.189,-0.556 -0.196,-0.558 -0.2,-0.552 -0.2,-0.55 -0.208,-0.551 -0.208,-0.545 -0.213,-0.548 -0.218,-0.546 -0.22,-0.54 -0.222,-0.54 -0.228,-0.54 -0.231,-0.537 -0.233,-0.535 -0.239,-0.533 -0.241,-0.532 -0.244,-0.527 -0.248,-0.526 -0.252,-0.528 -0.256,-0.526 -0.259,-0.52 -0.261,-0.518 -0.266,-0.519 -0.269,-0.516 -0.272,-0.511 -0.275,-0.51 -0.278,-0.511 -0.282,-0.507 -0.286,-0.508 -0.29,-0.501 -0.289,-0.499 -0.296,-0.501 -0.299,-0.496 -0.3,-0.492 -0.305,-0.493 -0.308,-0.491 -0.312,-0.488 -0.313,-0.485 -0.318,-0.483 -0.321,-0.481 -0.323,-0.479 -0.328,-0.477 -0.329,-0.474 -0.332,-0.47 -0.337,-0.472 -0.34,-0.466 -0.339,-0.464 -0.347,-0.464 -0.348,-0.46 -0.352,-0.458 -0.353,-0.454 -0.405,-0.516 -0.238,-0.246 z" />
    </g>
  </g>
  <g
     style="fill:#a6e22d;fill-opacity:1"
     transform="translate(-79.872,-444.937)"
     id="dp_group025">
    <g
       style="fill:#a6e22d;fill-opacity:1"
       id="dp_group026">
      <path
         style="fill:#a6e22d;fill-opacity:1"
         id="dp_path027"
         fill="#f4b005"
         fill-rule="evenodd"
         d="m 184.04,631.257 0.739,3.251 1.478,6.501 14.404,-11.821 -18.1,-4.431 z" />
      <path
         style="fill:#a6e22d;fill-opacity:1"
         id="dp_path028"
         fill="#f4b005"
         d="m 184.041,631.259 -0.242,0.056 -0.766,0.089 -0.845,0.092 -0.847,0.083 -0.852,0.074 -0.852,0.066 -0.856,0.056 -0.858,0.048 -0.86,0.041 -0.86,0.029 -0.868,0.023 -0.866,0.015 -0.869,0.002 -0.865,-0.002 -0.862,-0.014 -0.858,-0.022 -0.858,-0.031 -0.857,-0.04 -0.853,-0.047 -0.85,-0.056 -0.849,-0.065 -0.847,-0.073 -0.842,-0.082 -0.839,-0.09 -0.84,-0.099 -0.836,-0.107 -0.833,-0.114 -0.831,-0.123 -0.827,-0.132 -0.824,-0.14 -0.822,-0.148 -0.82,-0.155 -0.818,-0.164 -0.814,-0.17 -0.81,-0.18 -0.808,-0.188 -0.805,-0.195 -0.801,-0.203 -0.799,-0.21 -0.793,-0.218 -0.792,-0.226 -0.79,-0.234 -0.786,-0.242 -0.783,-0.248 -0.779,-0.256 -0.774,-0.264 -0.774,-0.271 -0.766,-0.277 -0.766,-0.287 -0.762,-0.293 -0.756,-0.3 -0.755,-0.308 -0.752,-0.315 -0.745,-0.321 -0.743,-0.33 -0.74,-0.336 -0.735,-0.342 -0.732,-0.351 -0.726,-0.355 -0.723,-0.364 -0.72,-0.37 -0.715,-0.376 -0.71,-0.384 -0.708,-0.392 -0.703,-0.398 -0.697,-0.402 -0.696,-0.412 -0.69,-0.416 -0.684,-0.423 -0.681,-0.429 -0.677,-0.438 -0.672,-0.441 -0.666,-0.449 -0.664,-0.456 -0.66,-0.462 -0.653,-0.466 -0.648,-0.474 -0.644,-0.478 -0.639,-0.487 -0.634,-0.492 -0.631,-0.499 -0.624,-0.502 -0.62,-0.51 -0.613,-0.514 -0.611,-0.523 -0.604,-0.527 -0.6,-0.533 -0.595,-0.537 -0.586,-0.543 -0.584,-0.552 -0.58,-0.555 -0.572,-0.558 -0.568,-0.567 -0.562,-0.572 -0.556,-0.577 -0.552,-0.583 -0.546,-0.587 -0.539,-0.592 -0.535,-0.598 -0.529,-0.604 -0.523,-0.607 -0.516,-0.612 -0.51,-0.62 -0.507,-0.623 -0.499,-0.628 -0.493,-0.633 -0.487,-0.637 -0.481,-0.644 -0.477,-0.648 -0.468,-0.651 -0.463,-0.657 -0.457,-0.663 -0.451,-0.665 -0.444,-0.672 -0.439,-0.675 -0.43,-0.679 -0.424,-0.684 -0.419,-0.69 -0.413,-0.694 -0.406,-0.694 -0.398,-0.703 -0.392,-0.707 -0.387,-0.709 -0.3773,-0.712 -0.3734,-0.721 -0.3653,-0.722 -0.3587,-0.725 -0.352,-0.731 -0.344,-0.733 -0.3373,-0.739 -0.3307,-0.741 -0.324,-0.747 -0.3173,-0.748 -0.3093,-0.753 -0.3014,-0.757 -0.296,-0.76 -0.288,-0.764 -0.28,-0.768 -0.2733,-0.771 -0.2653,-0.775 -0.2614,-0.788 -3.1626,1.054 0.2666,0.798 0.276,0.807 0.284,0.803 0.2934,0.797 0.2986,0.796 0.3067,0.789 0.3147,0.79 0.3226,0.782 0.328,0.78 0.3374,0.776 0.344,0.771 0.3506,0.768 0.36,0.765 0.3654,0.758 0.372,0.757 0.3813,0.751 0.3867,0.745 0.3933,0.744 0.4027,0.739 0.408,0.733 0.4146,0.729 0.4214,0.727 0.4293,0.72 0.4347,0.715 0.4423,0.713 0.45,0.708 0.454,0.701 0.463,0.699 0.469,0.692 0.474,0.687 0.481,0.684 0.489,0.68 0.494,0.672 0.5,0.668 0.508,0.664 0.512,0.657 0.52,0.655 0.525,0.649 0.532,0.641 0.537,0.639 0.544,0.633 0.551,0.626 0.553,0.62 0.563,0.618 0.568,0.611 0.571,0.604 0.58,0.601 0.585,0.594 0.589,0.588 0.596,0.585 0.602,0.576 0.605,0.571 0.613,0.566 0.619,0.559 0.621,0.555 0.631,0.548 0.632,0.541 0.64,0.536 0.644,0.531 0.651,0.524 0.654,0.517 0.659,0.511 0.665,0.505 0.671,0.5 0.675,0.492 0.68,0.485 0.684,0.48 0.688,0.472 0.694,0.468 0.699,0.46 0.704,0.454 0.708,0.448 0.713,0.441 0.719,0.432 0.72,0.425 0.727,0.422 0.732,0.413 0.734,0.405 0.74,0.4 0.744,0.392 0.747,0.384 0.755,0.38 0.756,0.371 0.761,0.364 0.764,0.356 0.769,0.349 0.772,0.343 0.778,0.335 0.781,0.328 0.784,0.318 0.788,0.314 0.792,0.304 0.795,0.297 0.801,0.291 0.803,0.281 0.806,0.275 0.811,0.266 0.815,0.259 0.816,0.251 0.821,0.244 0.824,0.234 0.828,0.228 0.831,0.219 0.833,0.211 0.837,0.202 0.84,0.196 0.844,0.186 0.847,0.178 0.849,0.17 0.852,0.162 0.855,0.154 0.859,0.145 0.861,0.137 0.865,0.128 0.866,0.12 0.868,0.11 0.872,0.104 0.876,0.093 0.877,0.084 0.879,0.076 0.881,0.068 0.887,0.059 0.885,0.049 0.889,0.04 0.89,0.033 0.896,0.023 0.896,0.013 0.897,0.006 0.904,-0.006 0.9,-0.014 0.897,-0.023 0.898,-0.032 0.894,-0.041 0.891,-0.051 0.888,-0.059 0.889,-0.068 0.884,-0.077 0.882,-0.085 0.88,-0.095 0.954,-0.113 0.416,-0.094 z" />
    </g>
  </g>
  <g
     style="fill:#a6e22d;fill-opacity:1"
     transform="translate(-79.872,-444.937)"
     id="dp_group029">
    <g
       style="fill:#a6e22d;fill-opacity:1"
       id="dp_group030">
      <path
         style="fill:#a6e22d;fill-opacity:1"
         id="dp_path031"
         fill="#f4b005"
         fill-rule="evenodd"
         d="m 98.736,512.788 -3.128,-1.153 -6.256,-2.306 2.056,18.52 13.583,-12.757 z" />
      <path
         style="fill:#a6e22d;fill-opacity:1"
         id="dp_path032"
         fill="#f4b005"
         d="m 98.7347,512.788 0.2626,-0.715 0.3427,-0.686 0.3893,-0.76 0.3947,-0.755 0.401,-0.748 0.411,-0.745 0.417,-0.74 0.426,-0.735 0.43,-0.731 0.439,-0.724 0.448,-0.721 0.453,-0.716 0.46,-0.709 0.468,-0.707 0.475,-0.7 0.481,-0.696 0.49,-0.692 0.493,-0.685 0.501,-0.679 0.51,-0.675 0.514,-0.669 0.523,-0.664 0.529,-0.659 0.535,-0.653 0.54,-0.648 0.549,-0.641 0.554,-0.636 0.561,-0.631 0.567,-0.625 0.572,-0.619 0.58,-0.613 0.584,-0.607 0.593,-0.6 0.599,-0.597 0.601,-0.59 0.611,-0.582 0.614,-0.578 0.62,-0.569 0.628,-0.564 0.634,-0.56 0.638,-0.552 0.643,-0.544 0.651,-0.54 0.654,-0.533 0.66,-0.526 0.667,-0.518 0.671,-0.514 0.677,-0.506 0.681,-0.499 0.687,-0.492 0.693,-0.487 0.698,-0.48 0.702,-0.47 0.708,-0.464 0.712,-0.46 0.718,-0.45 0.722,-0.444 0.727,-0.436 0.732,-0.429 0.737,-0.423 0.742,-0.413 0.746,-0.408 0.75,-0.4 0.756,-0.392 0.76,-0.384 0.764,-0.379 0.768,-0.369 0.774,-0.363 0.776,-0.353 0.782,-0.347 0.785,-0.338 0.789,-0.331 0.795,-0.323 0.799,-0.314 0.801,-0.307 0.807,-0.299 0.809,-0.292 0.813,-0.282 0.818,-0.274 0.821,-0.265 0.825,-0.257 0.828,-0.251 0.834,-0.24 0.836,-0.233 0.837,-0.224 0.844,-0.215 0.845,-0.208 0.848,-0.197 0.855,-0.19 0.856,-0.18 0.86,-0.173 0.861,-0.163 0.864,-0.153 0.872,-0.145 0.871,-0.138 0.873,-0.125 0.879,-0.119 0.88,-0.108 0.885,-0.1 0.886,-0.09 0.888,-0.082 0.892,-0.07 0.896,-0.063 0.896,-0.053 0.898,-0.044 0.902,-0.034 0.904,-0.024 0.908,-0.014 0.912,-0.004 h 0.561 l 0.561,0.006 0.564,0.01 0.56,0.013 0.562,0.017 0.558,0.02 0.556,0.024 0.559,0.028 0.556,0.031 0.555,0.036 0.553,0.037 0.552,0.043 0.553,0.047 0.552,0.049 0.55,0.052 0.546,0.057 0.551,0.062 0.547,0.062 0.544,0.068 0.545,0.071 0.543,0.073 0.544,0.078 0.54,0.081 0.538,0.085 0.54,0.088 0.539,0.092 0.535,0.095 0.536,0.099 0.536,0.102 0.532,0.104 0.53,0.108 0.535,0.115 0.691,-3.261 -0.548,-0.115 -0.555,-0.113 -0.553,-0.11 -0.555,-0.105 -0.557,-0.104 -0.559,-0.097 -0.557,-0.095 -0.562,-0.093 -0.562,-0.088 -0.564,-0.084 -0.563,-0.08 -0.564,-0.079 -0.567,-0.073 -0.568,-0.071 -0.57,-0.065 -0.567,-0.062 -0.571,-0.06 -0.573,-0.054 -0.573,-0.052 -0.572,-0.047 -0.576,-0.045 -0.578,-0.04 -0.576,-0.036 -0.58,-0.034 -0.577,-0.028 -0.58,-0.026 -0.583,-0.02 -0.58,-0.018 -0.584,-0.013 -0.582,-0.009 -0.586,-0.007 -0.588,-0.003 -0.941,0.007 -0.943,0.015 -0.938,0.024 -0.939,0.036 -0.936,0.044 -0.933,0.056 -0.928,0.065 -0.927,0.073 -0.925,0.084 -0.923,0.096 -0.917,0.103 -0.915,0.113 -0.913,0.122 -0.911,0.133 -0.908,0.143 -0.901,0.15 -0.902,0.159 -0.898,0.171 -0.892,0.178 -0.891,0.188 -0.887,0.198 -0.885,0.205 -0.88,0.216 -0.876,0.223 -0.875,0.234 -0.868,0.242 -0.865,0.25 -0.863,0.259 -0.857,0.268 -0.856,0.276 -0.849,0.287 -0.848,0.293 -0.842,0.303 -0.838,0.309 -0.836,0.32 -0.828,0.328 -0.827,0.336 -0.821,0.344 -0.818,0.352 -0.813,0.36 -0.808,0.369 -0.804,0.376 -0.8,0.386 -0.796,0.392 -0.789,0.4 -0.786,0.408 -0.781,0.416 -0.776,0.424 -0.771,0.432 -0.766,0.438 -0.762,0.446 -0.756,0.454 -0.752,0.46 -0.746,0.471 -0.742,0.476 -0.734,0.483 -0.732,0.492 -0.724,0.498 -0.72,0.503 -0.716,0.513 -0.708,0.52 -0.704,0.526 -0.7,0.534 -0.691,0.54 -0.687,0.547 -0.681,0.555 -0.675,0.558 -0.672,0.568 -0.662,0.576 -0.658,0.579 -0.652,0.585 -0.646,0.596 -0.639,0.599 -0.635,0.607 -0.628,0.613 -0.62,0.619 -0.614,0.624 -0.611,0.633 -0.601,0.637 -0.596,0.643 -0.591,0.649 -0.583,0.658 -0.574,0.66 -0.571,0.668 -0.564,0.674 -0.556,0.678 -0.548,0.685 -0.544,0.691 -0.536,0.696 -0.528,0.701 -0.523,0.708 -0.514,0.712 -0.508,0.719 -0.5,0.722 -0.494,0.73 -0.486,0.733 -0.479,0.739 -0.472,0.745 -0.464,0.748 -0.4573,0.756 -0.4494,0.76 -0.4413,0.764 -0.4333,0.769 -0.4267,0.775 -0.42,0.78 -0.4107,0.784 -0.4026,0.787 -0.4334,0.868 -0.3266,0.882 z" />
    </g>
  </g>
  <text
     id="dp_text008"
     xml:space="preserve"
     fill="#e30808"
     stroke="none"
     stroke-width="2.66667"
     font-family="Arial"
     font-size="49px"
     font-weight="400"
     x="309.203"
     y="122.28">1  </text>
  <text
     style="fill:#a6e22d;fill-opacity:1;"
     id="dp_text009"
     xml:space="preserve"
     fill="#f4b005"
     stroke="none"
     stroke-width="2.66667"
     font-family="Arial"
     font-size="49px"
     font-weight="400"
     x="96.007004"
     y="122.28">1  </text>
</svg>
